<svg width="60" height="69" viewBox="0 0 60 69" fill="none" xmlns="http://www.w3.org/2000/svg">
<g clip-path="url(#clip0_30_333)">
<path d="M31.6226 0.43003C30.6045 -0.143669 29.3955 -0.143669 28.3774 0.43003L1.5907 15.9218C0.572578 16.4955 0 17.5792 0 18.7266V49.7735C0 50.9211 0.636328 52.0049 1.5907 52.5786L28.3774 68.0701C29.3955 68.644 30.6045 68.644 31.6226 68.0701L58.4093 52.5786C59.4274 52.0049 60 50.9211 60 49.7735V18.7266C60 17.5792 59.3637 16.4955 58.4093 15.9218L31.6226 0.43003Z" fill="url(#paint0_linear_30_333)"/>
<mask id="mask0_30_333" style="mask-type:luminance" maskUnits="userSpaceOnUse" x="0" y="-1" width="60" height="70">
<path d="M31.6226 0.43003C30.6045 -0.143669 29.3955 -0.143669 28.3774 0.43003L1.5907 15.9218C0.572578 16.4955 0 17.5792 0 18.7266V49.7735C0 50.9211 0.636328 52.0049 1.5907 52.5786L28.3774 68.0701C29.3955 68.644 30.6045 68.644 31.6226 68.0701L58.4093 52.5786C59.4274 52.0049 60 50.9211 60 49.7735V18.7266C60 17.5792 59.3637 16.4955 58.4093 15.9218L31.6226 0.43003Z" fill="url(#paint1_linear_30_333)"/>
</mask>
<g mask="url(#mask0_30_333)">
<path d="M58.4731 15.9217L31.5586 0.430455C31.3041 0.303175 30.9861 0.175661 30.7315 0.111786L0.572632 51.8776C0.827163 52.1962 1.14544 52.4513 1.46326 52.6427L28.3775 68.1342C29.1411 68.5804 30.0319 68.7079 30.859 68.4528L59.1727 16.5593C58.9817 16.3043 58.7274 16.1131 58.4729 15.922L58.4731 15.9217Z" fill="url(#paint2_linear_30_333)"/>
</g>
<mask id="mask1_30_333" style="mask-type:luminance" maskUnits="userSpaceOnUse" x="0" y="-1" width="60" height="70">
<path d="M31.6226 0.43003C30.6045 -0.143669 29.3955 -0.143669 28.3774 0.43003L1.5907 15.9218C0.572578 16.4955 0 17.5792 0 18.7266V49.7735C0 50.9211 0.636328 52.0049 1.5907 52.5786L28.3774 68.0701C29.3955 68.644 30.6045 68.644 31.6226 68.0701L58.4093 52.5786C59.4274 52.0049 60 50.9211 60 49.7735V18.7266C60 17.5792 59.3637 16.4955 58.4093 15.9218L31.6226 0.43003Z" fill="url(#paint3_linear_30_333)"/>
</mask>
<g mask="url(#mask1_30_333)">
<path d="M58.5365 52.5788C59.3001 52.1326 59.8727 51.3675 60.1273 50.5388L30.6044 0.0479107C29.8408 -0.0796039 29.0137 -0.015964 28.3139 0.43022L1.59045 15.8583L30.4137 68.5169C30.7952 68.4531 31.2408 68.3256 31.6226 68.1342L58.5365 52.579V52.5788Z" fill="url(#paint4_linear_30_333)"/>
</g>
</g>
<defs>
<linearGradient id="paint0_linear_30_333" x1="4091.28" y1="1197.87" x2="1146.94" y2="5815.14" gradientUnits="userSpaceOnUse">
<stop stop-color="#41873F"/>
<stop offset="0.3288" stop-color="#418B3D"/>
<stop offset="0.6352" stop-color="#419637"/>
<stop offset="0.9319" stop-color="#3FA92D"/>
<stop offset="1" stop-color="#3FAE2A"/>
</linearGradient>
<linearGradient id="paint1_linear_30_333" x1="2596.62" y1="3779.12" x2="10051.8" y2="-358.177" gradientUnits="userSpaceOnUse">
<stop offset="0.1376" stop-color="#41873F"/>
<stop offset="0.4032" stop-color="#54A044"/>
<stop offset="0.7136" stop-color="#66B848"/>
<stop offset="0.9081" stop-color="#6CC04A"/>
</linearGradient>
<linearGradient id="paint2_linear_30_333" x1="2536.61" y1="3777.59" x2="9896.35" y2="-213.169" gradientUnits="userSpaceOnUse">
<stop offset="0.1376" stop-color="#41873F"/>
<stop offset="0.4032" stop-color="#54A044"/>
<stop offset="0.7136" stop-color="#66B848"/>
<stop offset="0.9081" stop-color="#6CC04A"/>
</linearGradient>
<linearGradient id="paint3_linear_30_333" x1="-263.34" y1="3424.83" x2="6089.94" y2="3424.83" gradientUnits="userSpaceOnUse">
<stop offset="0.09192" stop-color="#6CC04A"/>
<stop offset="0.2864" stop-color="#66B848"/>
<stop offset="0.5968" stop-color="#54A044"/>
<stop offset="0.8624" stop-color="#41873F"/>
</linearGradient>
<linearGradient id="paint4_linear_30_333" x1="-255.328" y1="3426.14" x2="5943.02" y2="3426.14" gradientUnits="userSpaceOnUse">
<stop offset="0.09192" stop-color="#6CC04A"/>
<stop offset="0.2864" stop-color="#66B848"/>
<stop offset="0.5968" stop-color="#54A044"/>
<stop offset="0.8624" stop-color="#41873F"/>
</linearGradient>
<clipPath id="clip0_30_333">
<rect width="60" height="68.5714" fill="white"/>
</clipPath>
</defs>
</svg>
