<svg width="70" height="70" viewBox="0 0 70 70" fill="none" xmlns="http://www.w3.org/2000/svg">
<g clip-path="url(#clip0_30_329)">
<path d="M63.6847 3.63289C62.7043 5.98483 61.4493 8.21259 59.9457 10.2698C53.358 3.68588 44.4258 -0.0130861 35.1121 -0.0142174C15.8506 -0.0142174 3.25431e-08 15.8495 3.25431e-08 35.1323C-0.00020479 39.894 0.966439 44.6061 2.84135 48.9832C4.71626 53.3602 7.46038 57.3109 10.9074 60.5959L12.2024 61.7444C18.5314 67.0805 26.5418 70.0094 34.8201 70.0142C53.1333 70.0142 68.5278 55.6642 69.8316 37.3751C70.7891 28.4222 68.163 17.0986 63.6847 3.63289ZM15.896 60.7961C15.6141 61.1435 15.2582 61.4236 14.8544 61.616C14.4505 61.8084 14.0088 61.9083 13.5614 61.9084C11.9109 61.9084 10.5607 60.55 10.5607 58.8995C10.5607 57.2496 11.9197 55.8912 13.5614 55.8912C14.245 55.8912 14.9204 56.128 15.4492 56.566C16.7349 57.6051 16.9356 59.5104 15.896 60.7961ZM63.5392 50.2753C54.8751 61.8264 36.3705 57.9332 24.5055 58.4894C24.5055 58.4894 22.3989 58.6173 20.283 58.9635C20.283 58.9635 21.076 58.6261 22.1069 58.234C30.4336 55.335 34.3733 54.7695 39.4346 52.1713C48.965 47.3211 58.386 36.709 60.3471 25.6681C56.7175 36.2895 45.7182 45.4158 35.6956 49.1263C28.8285 51.6611 16.4248 54.1226 16.4248 54.1226L15.9234 53.8579C7.47852 49.7465 7.22258 31.4486 22.5717 25.5407C29.2934 22.9513 35.723 24.3737 42.9827 22.6412C50.7347 20.7998 59.6996 14.9827 63.3473 7.39758C67.433 19.5327 72.3494 38.5323 63.5392 50.2753Z" fill="#77BC1F"/>
</g>
<defs>
<clipPath id="clip0_30_329">
<rect width="70" height="70" fill="white"/>
</clipPath>
</defs>
</svg>
