<svg width="70" height="81" viewBox="0 0 70 81" fill="none" xmlns="http://www.w3.org/2000/svg">
<g clip-path="url(#clip0_30_313)">
<path d="M22.5733 62.0152C22.5733 62.0152 18.9645 63.7947 25.1417 64.3969C32.6254 65.1207 36.45 65.0171 44.6971 63.6934C44.6971 63.6934 46.8655 64.8462 49.8933 65.8448C31.4059 72.5633 8.05214 65.4555 22.5733 62.0152ZM20.3142 53.2478C20.3142 53.2478 16.2665 55.7885 22.4484 56.3306C30.4426 57.0299 36.7557 57.0871 47.6801 55.3035C47.6801 55.3035 49.1911 56.6023 51.567 57.3127C29.2143 62.855 4.31754 57.7498 20.3142 53.2478Z" fill="#F5FAFD"/>
<path d="M39.3592 38.3757C43.9146 42.8227 38.1623 46.8245 38.1623 46.8245C38.1623 46.8245 49.729 41.7615 44.4169 35.4211C39.4557 29.5088 35.6508 26.5707 56.248 16.4418C56.248 16.4418 23.9173 23.2888 39.3592 38.3757Z" fill="#E76F00"/>
<path d="M63.8105 68.5001C63.8105 68.5001 66.4812 70.3658 60.8691 71.8093C50.198 74.5506 16.4541 75.3783 7.08016 71.9185C3.71059 70.6758 10.0297 68.9508 12.0174 68.5886C14.0903 68.2075 15.2751 68.2786 15.2751 68.2786C11.5276 66.0401 -8.94683 72.6739 4.87516 74.5735C42.5693 79.7569 73.5878 72.2397 63.8105 68.5001ZM24.3086 44.164C24.3086 44.164 7.14469 47.6209 18.2307 48.876C22.9114 49.4074 32.2424 49.2873 40.9342 48.6696C48.0375 48.1619 55.1702 47.0814 55.1702 47.0814C55.1702 47.0814 52.6655 47.991 50.8534 49.0401C33.4234 52.9272 -0.248236 51.119 9.4454 47.1429C17.6433 43.7828 24.3086 44.164 24.3086 44.164ZM55.0993 58.7575C72.8181 50.9504 64.6256 43.448 58.9075 44.4589C57.5059 44.7061 56.8811 44.9203 56.8811 44.9203C56.8811 44.9203 57.4014 44.2294 58.3951 43.9303C69.7072 40.5579 78.4072 53.8762 54.7433 59.1509C54.7433 59.1512 55.0176 58.9434 55.0993 58.7575Z" fill="#EFF7FC"/>
<path d="M44.4169 0.0860168C44.4169 0.0860168 54.2297 8.40965 35.1099 21.2083C19.778 31.4754 31.6137 37.3293 35.1036 44.0177C26.154 37.171 19.586 31.1436 23.9924 25.5341C30.4595 17.2993 48.376 13.3072 44.4169 0.0860168Z" fill="#E76F00"/>
<path d="M26.0498 79.9127C43.0573 80.8359 69.1742 79.4005 69.7927 72.5768C69.7927 72.5768 68.6038 75.1638 55.7369 77.218C41.2207 79.5343 23.3171 79.2639 12.6981 77.7794C12.6984 77.7794 14.8717 79.305 26.0498 79.9127Z" fill="#F1F6FA"/>
</g>
<defs>
<clipPath id="clip0_30_313">
<rect width="70" height="80.2222" fill="white"/>
</clipPath>
</defs>
</svg>
