<svg width="63" height="63" viewBox="0 0 63 63" fill="none" xmlns="http://www.w3.org/2000/svg">
<g clip-path="url(#clip0_30_319)">
<path d="M0 -1.52588e-05H63V63H0V-1.52588e-05Z" fill="#F7DF1E"/>
<path d="M16.5651 52.6473L21.386 49.7296C22.3163 51.3787 23.1623 52.774 25.1919 52.774C27.1373 52.774 28.364 52.0131 28.364 49.0531V28.9231H34.2843V49.1368C34.2843 55.2687 30.6899 58.0599 25.4456 58.0599C20.7095 58.0599 17.9604 55.6071 16.5648 52.6468M37.5 52.0129L42.3205 49.2219C43.5896 51.2943 45.2389 52.8166 48.1566 52.8166C50.6099 52.8166 52.1741 51.5901 52.1741 49.8984C52.1741 47.8687 50.5671 47.1496 47.8606 45.9659L46.3808 45.3309C42.1094 43.513 39.2761 41.2293 39.2761 36.4083C39.2761 31.9678 42.6591 28.5845 47.9455 28.5845C51.7092 28.5845 54.4158 29.8957 56.3609 33.3211L51.7511 36.2816C50.7359 34.4632 49.6369 33.7443 47.9452 33.7443C46.2112 33.7443 45.1117 34.8439 45.1117 36.2816C45.1117 38.0576 46.2112 38.777 48.7485 39.8765L50.2285 40.5107C55.2611 42.6677 58.0944 44.8666 58.0944 49.814C58.0944 55.1429 53.9078 58.0606 48.2833 58.0606C42.7859 58.0606 39.2335 55.4387 37.4998 52.0131" fill="black"/>
</g>
<defs>
<clipPath id="clip0_30_319">
<rect y="-1.52588e-05" width="63" height="63" rx="6" fill="white"/>
</clipPath>
</defs>
</svg>
