<svg width="70" height="70" viewBox="0 0 70 70" fill="none" xmlns="http://www.w3.org/2000/svg">
<g clip-path="url(#clip0_30_348)">
<path d="M20.8236 46.1914L22.951 56.3177C23.4289 58.6169 23.6283 60.2218 23.5484 61.1367C24.7119 56.5652 25.5248 51.5834 25.9874 46.1914H28.5454C27.4455 54.9696 25.9947 61.3487 24.194 65.328C22.791 68.3946 21.254 69.9278 19.5803 69.9278C19.1341 69.9278 18.5839 69.73 17.9311 69.3373V67.2212C18.25 67.2898 18.6242 67.3265 19.0546 67.3265C19.8354 67.3265 20.4647 67.009 20.9435 66.3754C21.5168 65.6034 21.8038 64.7357 21.8038 63.774C21.8038 63.1173 21.58 61.7697 21.1344 59.731L18.1703 46.1914H20.8236ZM4.54221 39.9674L8.43869 57.4084H8.46275L12.3832 39.9674H15.5862C16.2876 48.6169 16.7018 56.5309 16.829 63.7044H14.1285C14.0335 56.9986 13.7703 50.693 13.3399 44.7863H13.3164L9.20418 63.7044H7.14766L3.06031 44.7863H3.03625C2.73301 50.459 2.54215 56.7646 2.46258 63.7044H0C0.159141 55.2643 0.557402 47.3527 1.19479 39.9674H4.54221Z" fill="#00758F"/>
<path d="M48.193 39.6152C52.3844 39.6152 54.4801 43.5436 54.4801 51.3966C54.4801 55.664 53.8499 58.8874 52.5906 61.0651C52.3636 61.463 52.1127 61.8068 51.8486 62.1253L54.8147 64.2768L54.8118 64.2766L53.7587 66.9447L49.896 63.6382C49.2557 63.9164 48.5512 64.0554 47.7835 64.0554C45.7255 64.0554 44.1882 63.1755 43.1719 61.4179C42.0562 59.4735 41.4987 56.4126 41.4987 52.2402C41.4987 47.9969 42.1279 44.7857 43.3876 42.6053C44.535 40.6108 46.137 39.6152 48.193 39.6152ZM35.3578 39.6497C36.8559 39.6497 38.218 40.2378 39.4449 41.4097L38.8218 43.4469C37.7719 42.7923 36.7368 42.4635 35.716 42.4635C34.8878 42.4635 34.2496 42.7559 33.8047 43.3444C33.3574 43.9277 33.0807 44.6782 33.0807 45.5933C33.0807 46.9993 33.7634 48.2186 35.0241 49.2487C35.4371 49.5799 35.8487 49.9149 36.2588 50.2538L36.3529 50.3314L36.4 50.3703L36.4942 50.4479L36.5413 50.4868L36.6353 50.5647C37.5896 51.3539 38.4876 52.1073 38.4876 52.1073C39.7482 53.42 40.3765 54.8196 40.3765 57.1248C40.3765 59.138 39.8737 60.7905 38.8712 62.0836C37.8681 63.3708 36.5205 64.0163 34.8328 64.0163C33.2544 64.0163 31.7247 63.2734 30.2429 61.8L30.9361 59.7609C32.2113 60.6986 33.3652 61.167 34.4014 61.167C35.3732 61.167 36.1339 60.8486 36.6842 60.22C37.2334 59.5868 37.5624 58.7037 37.5624 57.5839C37.5624 56.1745 36.8942 54.9696 35.6682 53.959C35.2845 53.6479 34.9019 53.3339 34.5204 53.0169L34.4265 52.9388C34.254 52.7958 34.0802 52.651 33.91 52.5092L33.8177 52.4322C32.9899 51.7414 32.2742 51.1379 32.2742 51.1379C31.0486 49.8227 30.4341 48.4117 30.4341 46.0867C30.4341 44.1638 30.8923 42.6095 31.8075 41.4272C32.7249 40.2422 33.9085 39.6497 35.3578 39.6497ZM59.406 39.9674V60.7845H64.4971V63.7044H56.8239V39.9674H59.406ZM67.3261 60.7935V61.2869H66.7664V63.7018H66.3384V61.2869H65.757V60.7935H67.3262H67.3261ZM68.3597 60.7935L68.8971 62.7759L69.3908 60.7935H69.9975V63.7018H69.5941V61.4885L69.0322 63.7018H68.7414L68.1785 61.4885H68.1569V63.7018H67.7754V60.7935H68.3598H68.3597ZM47.9294 42.5343C45.4594 42.5343 44.2238 45.5249 44.2238 51.5019C44.2238 54.9257 44.5512 57.4084 45.2049 58.9558C45.8103 60.3879 46.7584 61.1026 48.0494 61.1026C50.5194 61.1026 51.7549 58.0888 51.7549 52.0639C51.7549 48.6881 51.4275 46.2267 50.7747 44.6784C50.1686 43.2496 49.2209 42.5343 47.9295 42.5343H47.9294Z" fill="#F29111"/>
<path d="M41.4556 1.47079C42.2749 -1.48285 45.1399 0.753937 46.2517 1.78569C46.5242 2.04382 46.8367 2.58918 47.1491 2.79076C47.6365 2.81884 48.1235 2.8748 48.6117 2.90468C49.5275 3.22038 50.3852 3.47832 51.1068 4.08124C54.4603 6.97852 56.6433 9.93096 58.6523 14.8077C59.0816 15.8406 59.2962 16.9584 59.6468 18.0762C60.1336 19.7424 60.6804 21.4914 61.2454 23.0669C61.4983 23.8138 61.6939 24.6444 62.0452 25.2752C62.1823 25.5636 62.5718 25.6487 62.8046 25.821C63.4483 26.3098 64.2281 26.6808 64.8335 27.2545C65.9641 28.2886 67.0571 29.5209 68.0508 30.7825C68.4212 31.2695 68.6736 31.9589 69.0264 32.474V32.7339C68.7132 32.8749 68.4011 33.0193 68.0887 33.1351C67.4063 33.3922 66.8019 33.334 66.1399 33.5914C65.7308 33.7655 65.2229 33.9951 64.7939 34.0535L64.8335 34.112C65.0859 35.1701 66.4515 36.0305 67.076 36.6633C67.8345 37.4664 68.5374 38.4404 69.1031 39.559C69.2985 39.8444 69.4939 40.1042 69.6883 40.3888C69.8242 40.6772 69.8625 41.0503 70 41.3074V41.3945C69.8477 41.3156 69.7382 41.1652 69.6344 41.0079L69.5725 40.9131C69.5105 40.8188 69.4481 40.7261 69.3768 40.6497C68.9464 40.2185 68.5191 39.7026 68.0887 39.3017C67.3488 38.6129 66.4906 38.2132 65.7308 37.5218C65.3013 37.1204 64.8918 36.6633 64.4823 36.204C64.1111 35.8015 63.7023 35.0285 63.4691 34.4548C63.3317 34.1379 63.3128 33.7655 63.1559 33.5362C63.1839 33.1533 63.423 33.0396 63.6643 32.9461L63.7198 32.9247C63.8031 32.893 63.8846 32.8613 63.9557 32.8194C64.9693 32.188 66.1778 31.9589 67.7383 32.0163C67.6795 31.4414 66.7044 30.7252 66.3931 30.381C65.7683 29.7203 65.1067 29.0309 64.4439 28.4296C64.0927 28.1147 63.4874 27.8849 63.0983 27.6275C62.5718 27.3118 61.4016 26.9963 61.1099 26.395C60.6143 25.4471 60.2582 24.3165 59.9126 23.1744L59.8186 22.8627C59.7872 22.7588 59.7557 22.655 59.7242 22.5512C59.3157 21.1759 58.8082 19.742 58.3987 18.3338C58.1846 17.6468 58.0863 17.0439 57.8519 16.385C56.429 12.3418 54.3231 8.95677 51.7699 6.57617C50.9309 5.80156 49.9953 5.08471 48.9625 4.59752C48.3773 4.33818 47.6748 4.48159 47.0512 4.28262H46.6408C46.2905 4.13781 45.9981 3.59305 45.7248 3.30583C45.1212 2.70451 44.5166 2.30076 43.7947 1.87173C43.5418 1.69964 42.8195 1.29889 42.5674 1.6144C42.4113 1.67196 42.3321 1.75841 42.2937 1.98826C42.1384 2.33124 42.2749 2.84792 42.3716 3.16422C42.6645 4.08084 43.0735 4.6256 43.4448 5.40021C43.7752 6.08717 44.1855 6.86179 44.4197 7.60872C44.925 9.21431 45.1603 10.9932 45.6285 12.5986C45.8022 13.2023 46.0768 13.8893 46.3296 14.4338C46.5439 14.8661 46.9334 15.1785 47.0512 15.7257C47.2861 16.2994 46.6996 18.1922 46.5638 18.7933C46.0559 21.1454 46.1543 24.4149 46.7392 26.4538L46.7704 26.5613L46.8016 26.6702C47.0151 27.4169 47.2437 28.221 47.8115 28.4298C47.8506 28.3728 47.8115 28.4027 47.889 28.3728C48.0264 26.7947 48.0651 25.275 48.4359 24.0403C48.6501 23.2683 49.0779 22.7225 49.3712 22.0923C49.5667 22.264 49.5667 22.7817 49.6832 23.1243C49.9369 24.0128 50.2094 24.987 50.5222 25.8781C51.1643 27.7134 51.8867 29.4926 52.7052 31.098C52.9793 31.6715 53.3683 32.3027 53.7191 32.8192C53.8754 33.0191 54.0504 33.1347 54.1678 33.392H54.2061V33.4786C53.6212 33.1623 53.2505 32.2746 52.784 31.7563C51.9057 30.7821 50.8539 29.3192 50.2485 27.9153C49.9953 27.1094 49.7216 26.337 49.4487 25.5351V25.4772C49.3321 25.7062 49.3712 25.9337 49.3128 26.2803C49.0596 27.7134 49.2546 29.3482 48.3773 29.8637C47.3828 30.4674 46.6409 28.8895 46.3296 28.1725C45.3348 25.7925 45.0624 21.7774 45.7639 18.5363C45.9197 17.8189 45.9409 16.9584 46.213 16.3856C46.1542 15.8677 45.8821 15.7261 45.7248 15.4088C45.4519 14.8665 45.2182 14.2347 45.0045 13.6323C44.5941 12.4558 44.3021 11.05 43.9905 9.78815C43.8535 9.27288 43.8143 8.7556 43.6777 8.26781C43.4447 7.52328 43.0153 6.77634 42.684 6.11766C42.2354 5.17096 40.9289 3.33612 41.4556 1.47079ZM47.8502 7.08984C47.9023 7.16646 47.9652 7.23345 48.0303 7.29944L48.1087 7.37846C48.2133 7.48477 48.3146 7.59669 48.3767 7.74912C48.4751 7.9509 48.4935 8.15007 48.6113 8.35225C48.6113 9.04162 48.4751 9.49993 48.2002 9.78554C48.2002 9.78554 48.1815 9.81563 48.1622 9.84371C48.0063 9.38419 47.8697 8.92709 47.7128 8.46798C47.5195 8.06723 47.2462 7.74932 47.0887 7.29142H47.0508V7.23385C47.2861 7.14861 47.5195 7.08984 47.8502 7.08984Z" fill="#00758F"/>
</g>
<defs>
<clipPath id="clip0_30_348">
<rect width="70" height="70" fill="white"/>
</clipPath>
</defs>
</svg>
