<svg width="70" height="70" viewBox="0 0 70 70" fill="none" xmlns="http://www.w3.org/2000/svg">
<g clip-path="url(#clip0_30_343)">
<path d="M69.7288 41.9167C69.309 40.684 68.2095 39.8255 66.7877 39.6194C66.1172 39.5224 65.3494 39.5638 64.4408 39.7454C62.857 40.0623 61.682 40.1829 60.8246 40.2062C64.0612 34.9072 66.6931 28.8644 68.2082 23.1761C70.6582 13.9782 69.349 9.78805 67.8191 7.89274C63.7703 2.87608 57.8632 0.181077 50.7369 0.0986152C46.9353 0.0535394 43.598 0.78138 41.857 1.30479C40.2361 1.02744 38.4932 0.872593 36.6644 0.843956C33.2363 0.790926 30.2075 1.51558 27.6194 3.00494C26.1866 2.53509 23.887 1.87274 21.2313 1.45009C14.9855 0.455774 9.9515 1.23055 6.26939 3.75293C1.81072 6.80695 -0.256192 12.1132 0.126074 19.5241C0.24748 21.8771 1.60482 29.0362 3.74201 35.8257C4.97029 39.7282 6.28006 42.9688 7.63494 45.4586C9.55639 48.9891 11.6124 51.0682 13.9204 51.8148C15.2141 52.2327 17.5646 52.5254 20.0367 50.5288C20.3501 50.8969 20.7681 51.2625 21.323 51.6022C22.0276 52.0331 22.8892 52.3852 23.7497 52.5938C26.8508 53.3456 29.7555 53.1576 32.2337 52.1038C32.249 52.5313 32.2607 52.9396 32.2706 53.2923C32.287 53.8642 32.3034 54.425 32.325 54.9495C32.4718 58.4956 32.7206 61.2529 33.4578 63.1821C33.4983 63.2882 33.5527 63.4499 33.6101 63.6215C33.9779 64.7134 34.5929 66.5414 36.1575 67.9729C37.7776 69.4559 39.7373 69.9106 41.5322 69.9106C42.4323 69.9106 43.2912 69.7961 44.0445 69.6396C46.7297 69.0815 49.7793 68.2314 51.9854 65.1854C54.0712 62.3058 55.0851 57.9687 55.2686 51.135C55.2924 50.9417 55.3142 50.7571 55.3353 50.5813L55.379 50.2202L55.8704 50.2621L55.997 50.2703C58.7319 50.3912 62.0761 49.8288 64.1299 48.9037C65.7527 48.1735 70.9532 45.5111 69.7288 41.9167Z" fill="black"/>
<path d="M65.0525 42.6157C56.9205 44.2424 56.3613 41.5726 56.3613 41.5726C64.9472 29.2184 68.5367 13.5365 65.4394 9.69843C56.9891 -0.771078 42.3616 4.18036 42.1174 4.30869L42.0389 4.32248C40.4322 3.999 38.6343 3.8065 36.6134 3.77441C32.934 3.71608 30.1427 4.70987 28.0247 6.26737C28.0247 6.26737 1.93055 -4.1568 3.14434 19.3775C3.40247 24.3841 10.5447 57.2605 19.0633 47.3303C22.177 43.6991 25.1856 40.6289 25.1856 40.6289C26.6797 41.5914 28.4685 42.0824 30.3437 41.9061L30.4895 41.7863C30.4441 42.237 30.4649 42.678 30.5477 43.2001C28.3531 45.5777 28.9981 45.995 24.6111 46.8708C20.1718 47.758 22.7796 49.3373 24.4823 49.7504C26.5465 50.2507 31.3218 50.9597 34.5484 46.5797L34.4199 47.0795C35.2795 47.7474 35.8833 51.4235 35.7821 54.7562C35.6809 58.0886 35.6134 60.3766 36.2907 62.1637C36.9686 63.9508 37.6437 67.9718 43.411 66.7736C48.2298 65.7721 50.7271 63.1771 51.0747 58.8482C51.321 55.7709 51.8791 56.2259 51.9141 53.4744L52.3617 52.172C52.8777 48.0004 52.4438 46.6544 55.4125 47.2805L56.1343 47.342C58.3191 47.4382 61.1793 47.001 62.8579 46.2445C66.4722 44.6181 68.616 41.9021 65.052 42.6157H65.0525Z" fill="#336791"/>
<path d="M29.552 21.6165C28.8192 21.5176 28.1555 21.609 27.8198 21.8556C27.6311 21.9943 27.5726 22.155 27.5567 22.2655C27.5146 22.5585 27.7263 22.8826 27.8564 23.0496C28.2245 23.5226 28.762 23.8477 29.2941 23.9193C29.3713 23.9299 29.4481 23.9347 29.5244 23.9347C30.4117 23.9347 31.2186 23.2646 31.2897 22.7701C31.3786 22.1507 30.4513 21.7376 29.552 21.6165ZM53.8289 21.6361C53.7589 21.1506 52.868 21.0122 52.0225 21.1262C51.1782 21.2402 50.3595 21.6098 50.4279 22.0964C50.4825 22.4747 51.1872 23.1207 52.0212 23.1207C52.0917 23.1207 52.1628 23.1162 52.2345 23.1063C52.7912 23.0316 53.1997 22.6887 53.3938 22.4912C53.6891 22.19 53.8603 21.8543 53.8289 21.6361Z" fill="white"/>
<path d="M67.7585 42.4308C67.4484 41.5216 66.4503 41.2292 64.7922 41.5611C59.869 42.5465 58.1059 41.864 57.527 41.4506C61.3537 35.7976 64.5018 28.9641 66.2001 22.5885C67.0046 19.5684 67.4489 16.7637 67.4853 14.4775C67.5255 11.9684 67.0847 10.1245 66.1758 8.99816C62.5112 4.45744 57.1327 2.02176 50.6221 1.95494C46.1462 1.90615 42.3646 3.01687 41.6315 3.32922C40.0877 2.95695 38.4047 2.72839 36.5724 2.69922C33.2124 2.64646 30.3079 3.42653 27.9033 5.01665C26.8588 4.6396 24.1594 3.741 20.8582 3.22528C15.151 2.33437 10.6158 3.00945 7.37936 5.23275C3.51761 7.88585 1.73479 12.6283 2.08014 19.3282C2.19636 21.5823 3.52089 28.5165 5.61104 35.1572C8.36237 43.8977 11.3532 48.8457 14.4999 49.8636C14.8683 49.9826 15.2929 50.0659 15.7613 50.0659C16.9092 50.0659 18.3166 49.5642 19.7808 47.8572C21.5668 45.7796 23.4143 43.7525 25.321 41.7783C26.558 42.4221 27.917 42.7816 29.3069 42.8177C29.3096 42.853 29.3132 42.8882 29.3164 42.9232C29.0772 43.1999 28.8429 43.4806 28.6137 43.7651C27.6507 44.9506 27.4502 45.1974 24.3503 45.8163C23.4684 45.9929 21.1264 46.4609 21.092 48.0529C21.0548 49.7922 23.8605 50.5227 24.1802 50.6002C25.2942 50.8706 26.3674 51.004 27.3909 51.004C29.88 51.004 32.0705 50.2107 33.821 48.6757C33.7672 54.8765 34.0338 60.9867 34.8016 62.8483C35.4305 64.3724 36.9667 68.097 41.8191 68.0967C42.5311 68.0967 43.3148 68.0164 44.1769 67.8371C49.2413 66.7845 51.4405 64.614 52.2912 59.8288C52.7465 57.2714 53.5277 51.1647 53.8952 47.889C54.6707 48.1237 55.669 48.231 56.7482 48.2308C58.9992 48.2308 61.5965 47.767 63.2254 47.0339C65.0553 46.2098 68.3573 44.1877 67.7585 42.4308ZM55.6982 20.296C55.6815 21.263 55.5443 22.1409 55.3988 23.0573C55.2421 24.0429 55.0803 25.0618 55.0395 26.2988C54.9993 27.5026 55.1544 28.7541 55.3042 29.9645C55.6072 32.4092 55.9181 34.926 54.7147 37.4094C54.5148 37.0659 54.3367 36.7109 54.1815 36.3464C54.0319 35.9948 53.7071 35.4301 53.2573 34.6484C51.5075 31.6055 47.4101 24.4798 49.5076 21.5722C50.1324 20.7067 51.7181 19.8169 55.6982 20.296ZM50.8737 3.91309C56.7072 4.03797 61.3217 6.15415 64.5888 10.2025C67.0946 13.3077 64.3353 27.4368 56.3474 39.6261C56.267 39.527 56.1863 39.4283 56.1051 39.3299L56.0039 39.2074C58.0681 35.9018 57.6645 32.6311 57.3052 29.7314C57.1576 28.5414 57.0181 27.4174 57.0537 26.3616C57.0903 25.2427 57.2429 24.2828 57.3905 23.3548C57.5718 22.2112 57.7564 21.0278 57.7055 19.6329C57.7435 19.4865 57.7589 19.3136 57.7389 19.1084C57.609 17.7707 56.034 13.7672 52.8239 10.1436C51.0678 8.16161 48.5071 5.94362 45.0107 4.44763C46.5146 4.14536 48.5711 3.8635 50.8737 3.91309ZM18.2313 46.6078C16.618 48.4888 15.504 48.1282 15.1376 48.0099C12.7505 47.2378 9.98057 42.3452 7.5385 34.5869C5.42538 27.8738 4.19053 21.1233 4.09264 19.2304C3.78421 13.2438 5.28073 9.07161 8.54093 6.82949C13.8467 3.181 22.5699 5.36479 26.0751 6.47233C26.0248 6.52059 25.9723 6.56566 25.9225 6.61472C20.1705 12.2476 20.3069 21.8715 20.3212 22.4599C20.3206 22.6869 20.3403 23.0082 20.3671 23.4502C20.4661 25.069 20.6504 28.0816 20.1582 31.4933C19.701 34.6638 20.7089 37.7668 22.9229 40.0071C23.1501 40.2366 23.389 40.455 23.6385 40.6615C22.653 41.685 20.5112 43.9483 18.2313 46.6078ZM24.3779 38.6551C22.5934 36.8494 21.783 34.3379 22.154 31.7638C22.6735 28.1599 22.4819 25.021 22.3788 23.3346C22.3643 23.0987 22.3514 22.8918 22.344 22.7288C23.1843 22.0062 27.0783 19.9831 29.8554 20.6001C31.1225 20.8815 31.8947 21.7183 32.2157 23.1575C33.8771 30.6091 32.4355 33.7148 31.2773 36.2107C31.0385 36.7248 30.813 37.2108 30.6205 37.7135L30.4712 38.1022C30.0933 39.0849 29.7416 39.9986 29.5237 40.8662C27.6266 40.8609 25.7812 40.075 24.3779 38.6548V38.6551ZM24.6691 48.7043C24.1151 48.5702 23.6169 48.3371 23.3246 48.1438C23.5688 48.0324 24.0033 47.8808 24.7569 47.7302C28.4037 47.0023 28.967 46.4885 30.1969 44.9742C30.4788 44.6268 30.7985 44.2333 31.2412 43.754L31.2417 43.7534C31.901 43.0375 32.2026 43.159 32.7494 43.379C33.1927 43.5567 33.6244 44.0955 33.7994 44.6884C33.8823 44.9683 33.9753 45.4997 33.6709 45.9133C31.1017 49.4017 27.3578 49.3569 24.6691 48.7043ZM43.7548 65.9265C39.2933 66.8534 37.7137 64.646 36.6727 62.1226C36.0009 60.4935 35.6706 53.1472 35.9049 45.0344C35.9079 44.9265 35.8921 44.8223 35.8614 44.7241C35.834 44.5304 35.7924 44.3388 35.7367 44.1509C35.3884 42.9704 34.5394 41.983 33.5208 41.5736C33.1161 41.4111 32.3735 41.1128 31.481 41.3342C31.6713 40.5737 32.0013 39.7149 32.3592 38.785L32.5094 38.3939C32.6783 37.953 32.8905 37.4961 33.1148 37.0125C34.3269 34.4013 35.9869 30.8246 34.1853 22.7447C33.5104 19.7182 31.2567 18.2403 27.8404 18.5837C25.7924 18.7891 23.9185 19.5904 22.9839 20.0499C22.7829 20.1486 22.5992 20.244 22.4274 20.3368C22.6883 17.2876 23.6738 11.589 27.3603 7.98343C29.6815 5.71373 32.7727 4.59267 36.539 4.65312C43.9601 4.77085 48.719 8.46388 51.4047 11.5415C53.7191 14.1933 54.9723 16.8647 55.4724 18.3055C51.7112 17.9346 49.1532 18.6544 47.8566 20.4522C45.0355 24.3626 49.3999 31.9523 51.4974 35.6C51.8821 36.2685 52.2141 36.8462 52.3185 37.0918C53.0016 38.697 53.8859 39.7687 54.5315 40.5509C54.7294 40.7906 54.9214 41.0232 55.0674 41.2263C53.9283 41.5447 51.8821 42.2805 52.0686 45.9584C51.9182 47.8039 50.8488 56.4441 50.3055 59.4968C49.5883 63.5298 48.0578 65.0318 43.7548 65.9267V65.9265ZM62.3769 45.2616C61.2121 45.7858 59.2628 46.179 57.411 46.2636C55.3657 46.3564 54.3245 46.0414 54.0795 45.8476C53.9646 43.5556 54.8443 43.3162 55.7753 43.0627C55.9216 43.0229 56.0644 42.984 56.2022 42.9373C56.2878 43.0049 56.3815 43.072 56.4844 43.1377C58.1283 44.1899 61.0603 44.3033 65.1999 43.4748L65.2453 43.466C64.6869 43.9722 63.7316 44.6515 62.3769 45.2616Z" fill="white"/>
</g>
<defs>
<clipPath id="clip0_30_343">
<rect width="70" height="70" fill="white"/>
</clipPath>
</defs>
</svg>
