<svg width="70" height="60" viewBox="0 0 70 60" fill="none" xmlns="http://www.w3.org/2000/svg">
<g clip-path="url(#clip0_30_322)">
<path d="M5.46875 -1.52588e-05H64.5312C67.5516 -1.52588e-05 70 2.09858 70 4.68748V55.3125C70 57.9014 67.5516 60 64.5312 60H5.46875C2.44836 60 0 57.9014 0 55.3125V4.68748C0 2.09858 2.44836 -1.52588e-05 5.46875 -1.52588e-05Z" fill="#3178C6"/>
<path d="M41.1573 46.9863V53.4598C42.3855 53.9993 43.8383 54.4038 45.5153 54.6736C47.1923 54.9433 48.9598 55.0781 50.8181 55.0781C52.6288 55.0781 54.3493 54.9298 55.9789 54.633C57.6086 54.3363 59.0379 53.8474 60.2659 53.1665C61.4942 52.4855 62.4665 51.5953 63.1832 50.4961C63.8996 49.3971 64.2578 48.0384 64.2578 46.4201C64.2578 45.2468 64.053 44.2183 63.6437 43.335C63.2388 42.4576 62.6369 41.6569 61.8721 40.9783C61.1007 40.2905 60.1754 39.6736 59.097 39.1272C58.0182 38.5812 56.8017 38.0653 55.4474 37.5799C54.4554 37.229 53.5659 36.8887 52.7784 36.5583C51.9911 36.2278 51.3218 35.8908 50.7708 35.5467C50.2195 35.2029 49.7943 34.8387 49.4952 34.4543C49.1961 34.0699 49.0465 33.6351 49.0465 33.1495C49.0465 32.7044 49.1802 32.3034 49.4479 31.946C49.7156 31.5886 50.0938 31.2818 50.5818 31.0256C51.0699 30.7692 51.6682 30.5705 52.377 30.4287C53.0854 30.2871 53.8729 30.2163 54.7389 30.2163C55.3689 30.2163 56.0342 30.2569 56.7347 30.3377C57.4355 30.4186 58.1402 30.5433 58.8489 30.712C59.5554 30.8799 60.2462 31.0929 60.9156 31.3493C61.5646 31.5958 62.1854 31.8937 62.7698 32.2392V26.1907C61.6202 25.8131 60.3643 25.5333 59.0023 25.3512C57.6404 25.169 56.0774 25.0781 54.3137 25.0781C52.5186 25.0781 50.8181 25.2433 49.2119 25.5738C47.6057 25.904 46.1923 26.4199 44.972 27.1212C43.7516 27.8226 42.7872 28.7161 42.0785 29.8017C41.37 30.8873 41.0156 32.1853 41.0156 33.6958C41.0156 35.6243 41.665 37.2696 42.9644 38.6318C44.2635 39.9937 46.2355 41.1469 48.8811 42.0909C49.8577 42.4318 50.8263 42.7893 51.7863 43.1632C52.684 43.5138 53.4595 43.8778 54.113 44.2554C54.7665 44.633 55.2822 45.0443 55.6601 45.4894C56.038 45.9344 56.227 46.4402 56.227 47.0067C56.2301 47.4144 56.1079 47.8156 55.8726 48.1699C55.6366 48.5271 55.2781 48.8374 54.798 49.1004C54.3178 49.3633 53.7193 49.5689 53.0029 49.7173C52.2864 49.8656 51.4478 49.9399 50.4872 49.9399C48.8496 49.9399 47.2279 49.6938 45.6217 49.2014C44.0152 48.7092 42.5272 47.9709 41.1573 46.9863ZM28.5693 30.877H38.2812V25.5469H11.2109V30.877H20.8756V54.6094H28.5693V30.877Z" fill="white"/>
</g>
<defs>
<clipPath id="clip0_30_322">
<rect width="70" height="60" fill="white"/>
</clipPath>
</defs>
</svg>
