<svg width="33" height="34" viewBox="0 0 33 34" fill="none" xmlns="http://www.w3.org/2000/svg">
<path d="M26.7087 6.49048C25.3705 5.09804 23.7784 3.99176 22.0239 3.23519C20.2694 2.47861 18.3872 2.08666 16.4852 2.08183C14.5833 2.07701 12.6992 2.45942 10.9411 3.20708C9.18308 3.95475 7.58573 5.05295 6.24085 6.43857C4.89598 7.8242 3.83008 9.46996 3.10441 11.2813C2.37873 13.0926 2.00757 15.0338 2.01225 16.9934C2.01693 18.953 2.39736 20.8923 3.13168 22.6999C3.86601 24.5075 4.93975 26.1479 6.29123 27.5266C7.62947 28.9191 9.22155 30.0254 10.976 30.7819C12.7305 31.5385 14.6127 31.9305 16.5147 31.9353C18.4166 31.9401 20.3007 31.5577 22.0588 30.81C23.8168 30.0624 25.4142 28.9642 26.7591 27.5786C28.1039 26.1929 29.1698 24.5472 29.8955 22.7358C30.6212 20.9245 30.9923 18.9833 30.9877 17.0237C30.983 15.0642 30.6026 13.1249 29.8682 11.3172C29.1339 9.5096 28.0602 7.86927 26.7087 6.49048ZM4.12496 17.0086C4.1245 15.8801 4.26972 14.7566 4.5568 13.6677C5.02988 14.7169 5.71695 15.6233 6.18424 16.6998C6.78816 18.0837 8.4098 17.6999 9.12588 18.9124C9.76139 19.9889 9.08269 21.3502 9.55836 22.4765C9.90383 23.2939 10.7185 23.4725 11.2805 24.0702C11.8548 24.6732 11.8426 25.4993 11.9302 26.2855C12.0291 27.2093 12.1896 28.125 12.4104 29.0261C12.4104 29.0327 12.4104 29.04 12.4156 29.0467C7.59254 27.3015 4.12496 22.5648 4.12496 17.0086ZM16.5 29.7586C15.8089 29.7583 15.119 29.6988 14.4375 29.5806C14.4445 29.4006 14.4478 29.2326 14.4652 29.1158C14.6218 28.0599 15.1348 27.0273 15.8271 26.237C16.5109 25.4574 17.4481 24.9302 18.0256 24.0456C18.5915 23.1824 18.761 22.0202 18.5277 21.0115C18.1841 19.5214 16.2189 19.024 15.1593 18.2158C14.5503 17.751 14.0082 17.0325 13.2083 16.974C12.8397 16.9475 12.5309 17.0291 12.1655 16.9322C11.8303 16.8425 11.5674 16.6566 11.2103 16.7051C10.5432 16.7954 10.1223 17.5299 9.4056 17.4302C8.72562 17.3366 8.02502 16.5165 7.87033 15.8491C7.67182 14.9911 8.33053 14.7129 9.03629 14.6365C9.33084 14.6047 9.66148 14.5701 9.94443 14.6817C10.317 14.8238 10.4929 15.1997 10.8274 15.3896C11.4546 15.7442 11.5815 15.1777 11.4855 14.604C11.3418 13.7447 11.1742 13.3947 11.918 12.8031C12.4336 12.3953 12.8745 12.1005 12.792 11.368C12.743 10.9377 12.5142 10.7431 12.7275 10.3148C12.8893 9.98876 13.3334 9.69458 13.6228 9.50001C14.3698 8.99798 16.8229 9.03516 15.8206 7.63001C15.5261 7.21763 14.9827 6.48052 14.4671 6.37958C13.8226 6.25407 13.5364 6.99516 13.0872 7.32188C12.6231 7.65989 11.7195 8.04372 11.2548 7.5211C10.6296 6.81786 11.6692 6.58743 11.8993 6.09602C12.0056 5.86692 11.8993 5.54884 11.7201 5.24934C11.9526 5.14841 12.1889 5.05477 12.4291 4.96845C12.5796 5.083 12.7582 5.15199 12.9447 5.16766C13.3759 5.19688 13.7826 4.95649 14.159 5.2593C14.5767 5.59134 14.8777 6.01102 15.432 6.11462C15.9682 6.21489 16.5361 5.89282 16.6688 5.32704C16.7494 4.98305 16.6688 4.61981 16.5915 4.26454C19.002 4.27883 21.3554 5.02262 23.3591 6.40348C23.2302 6.35302 23.0761 6.35899 22.886 6.44997C22.4947 6.63723 21.9405 7.11403 21.8947 7.58684C21.8425 8.12341 22.6108 8.19911 22.9756 8.19911C23.5234 8.19911 24.0784 7.94677 23.9018 7.29466C23.8251 7.01177 23.7206 6.71759 23.5524 6.53962C23.9568 6.82872 24.3442 7.14227 24.7126 7.4786C24.7068 7.48458 24.701 7.48989 24.6952 7.49653C24.3239 7.89497 23.8927 8.2104 23.6388 8.69516C23.4596 9.03649 23.2579 9.19852 22.895 9.28684C22.6952 9.33532 22.467 9.35325 22.2995 9.49137C21.8328 9.86989 22.0984 10.7797 22.5405 11.0526C23.0993 11.3972 23.9282 11.2352 24.3497 10.7431C24.6791 10.358 24.8731 9.68927 25.4654 9.68993C25.7262 9.68937 25.9767 9.79457 26.1628 9.98278C26.4077 10.2444 26.3594 10.4888 26.4116 10.8155C26.5037 11.3959 27.0007 11.0811 27.3029 10.7883C27.5233 11.1923 27.7221 11.6084 27.8985 12.0347C27.5659 12.5281 27.3017 13.066 26.5018 12.4909C26.0229 12.1463 25.7284 11.6463 25.127 11.4909C24.6017 11.3581 24.0635 11.4962 23.5447 11.5885C22.9549 11.6941 22.2556 11.7406 21.8083 12.2007C21.3758 12.6443 21.147 13.238 20.6868 13.6836C19.7967 14.5469 19.421 15.4892 19.9972 16.7097C20.5515 17.8831 21.711 18.52 22.962 18.4363C24.1912 18.352 25.468 17.6175 25.4325 19.4576C25.4196 20.1091 25.5518 20.56 25.7458 21.1649C25.9256 21.7227 25.9133 22.2633 25.9546 22.839C25.9938 23.5132 26.0961 24.1819 26.2601 24.8359C25.1048 26.3684 23.6249 27.6086 21.9333 28.4617C20.2418 29.3149 18.3833 29.7585 16.5 29.7586Z" fill="#972DA8"/>
</svg>
