<svg width="24" height="24" viewBox="0 0 28 28" fill="none" xmlns="http://www.w3.org/2000/svg">
<path d="M14.0001 0.935547C9.8586 0.935547 6.50122 4.29292 6.50122 8.43441C6.50423 9.70589 6.83055 10.9559 7.1345 11.5112L14.0001 27.0644L20.5616 12.0666H20.5582C21.1744 10.9552 21.4981 9.7053 21.4989 8.43441C21.4989 4.29292 18.1416 0.935547 14.0001 0.935547ZM14.0001 4.68492C14.4925 4.68492 14.98 4.78191 15.4349 4.97034C15.8898 5.15877 16.3032 5.43495 16.6513 5.78313C16.9995 6.1313 17.2757 6.54464 17.4641 6.99955C17.6525 7.45446 17.7495 7.94202 17.7495 8.43441C17.7495 9.4288 17.3544 10.3825 16.6513 11.0856C15.9481 11.7888 14.9945 12.1838 14.0001 12.1838C13.0057 12.1838 12.052 11.7888 11.3489 11.0856C10.6457 10.3825 10.2507 9.4288 10.2507 8.43441C10.2507 7.44001 10.6457 6.48634 11.3489 5.7832C12.052 5.08005 13.0057 4.68503 14.0001 4.68503V4.68492Z" fill="#972DA8"/>
</svg>
