<svg width="42" height="42" viewBox="0 0 42 42" fill="none" xmlns="http://www.w3.org/2000/svg">
<path d="M21.1481 3.96313C18.9108 3.96313 16.6954 4.40381 14.6283 5.26C12.5613 6.11619 10.6832 7.37113 9.10112 8.95317C5.90605 12.1482 4.11108 16.4817 4.11108 21.0002C4.11108 28.5305 9.00071 34.9194 15.7644 37.1854C16.6163 37.3217 16.8889 36.7935 16.8889 36.3335V33.4542C12.1696 34.4765 11.1644 31.1713 11.1644 31.1713C10.3807 29.195 9.27331 28.6668 9.27331 28.6668C7.72294 27.6105 9.39257 27.6446 9.39257 27.6446C11.0963 27.7639 11.9992 29.3994 11.9992 29.3994C13.4815 31.9891 15.9859 31.2224 16.957 30.8135C17.1103 29.7061 17.5533 28.9565 18.0303 28.5305C14.2481 28.1046 10.2785 26.6394 10.2785 20.1483C10.2785 18.2572 10.9259 16.7409 12.0333 15.5313C11.8629 15.1054 11.2666 13.3335 12.2037 11.0335C12.2037 11.0335 13.6348 10.5735 16.8889 12.7713C18.2348 12.3965 19.7 12.2091 21.1481 12.2091C22.5963 12.2091 24.0615 12.3965 25.4074 12.7713C28.6615 10.5735 30.0926 11.0335 30.0926 11.0335C31.0296 13.3335 30.4333 15.1054 30.2629 15.5313C31.3703 16.7409 32.0177 18.2572 32.0177 20.1483C32.0177 26.6565 28.0311 28.0876 24.2318 28.5135C24.8452 29.0417 25.4074 30.0809 25.4074 31.6654V36.3335C25.4074 36.7935 25.68 37.3387 26.5489 37.1854C33.3126 34.9024 38.1852 28.5305 38.1852 21.0002C38.1852 18.7628 37.7445 16.5474 36.8883 14.4804C36.0321 12.4134 34.7772 10.5352 33.1951 8.95317C31.6131 7.37113 29.7349 6.11619 27.6679 5.26C25.6009 4.40381 23.3855 3.96313 21.1481 3.96313Z" fill="#222222"/>
</svg>
