<svg width="41" height="41" viewBox="0 0 41 41" fill="none" xmlns="http://www.w3.org/2000/svg">
<path d="M38.3942 10.1528C37.0913 10.7451 35.6868 11.1342 34.2316 11.3204C35.7207 10.4236 36.8713 9.00217 37.4128 7.29311C36.0083 8.13918 34.4516 8.73143 32.8102 9.06985C31.4734 7.61462 29.5951 6.76855 27.4631 6.76855C23.4866 6.76855 20.2377 10.0174 20.2377 14.0278C20.2377 14.6031 20.3054 15.1615 20.4238 15.6861C14.3998 15.3815 9.03578 12.488 5.46538 8.10534C4.83929 9.17138 4.48395 10.4236 4.48395 11.7434C4.48395 14.2647 5.75304 16.4983 7.71591 17.7674C6.5145 17.7674 5.3977 17.429 4.41626 16.9213V16.9721C4.41626 20.4917 6.92061 23.436 10.2372 24.096C9.17238 24.3874 8.0545 24.4279 6.97138 24.2144C7.43097 25.6569 8.33107 26.9191 9.54513 27.8236C10.7592 28.7281 12.2262 29.2294 13.7399 29.257C11.174 31.2883 7.99342 32.3862 4.72085 32.3705C4.14552 32.3705 3.5702 32.3366 2.99487 32.2689C6.20992 34.3333 10.0341 35.5348 14.1291 35.5348C27.4631 35.5348 34.79 24.4682 34.79 14.8739C34.79 14.5524 34.79 14.2478 34.7731 13.9263C36.1945 12.911 37.4128 11.625 38.3942 10.1528Z" fill="#222222"/>
</svg>
